<?xml version="1.0" encoding="utf-8"?>
<!-- Svg Vector Icons : http://www.sfont.cn -->
<!DOCTYPE svg PUBLIC "-//W3C//DTD SVG 1.1//EN" "http://www.w3.org/Graphics/SVG/1.1/DTD/svg11.dtd">
<svg version="1.1" xmlns="http://www.w3.org/2000/svg" xmlns:xlink="http://www.w3.org/1999/xlink" x="0px" y="0px" viewBox="0 0 1000 1000" enable-background="new 0 0 1000 1000" xml:space="preserve">
<metadata> Svg Vector Icons : http://www.sfont.cn </metadata>
<g><g transform="translate(0.000000,512.000000) scale(0.100000,-0.100000)"><path d="M7182.6,4999.6c-105.3-26.8-214.4-113-277.6-216.3l-57.4-91.9l-5.7-3302.6c-1.9-2236.2,1.9-3323.7,15.3-3375.4c28.7-107.2,130.2-227.9,239.3-283.4l93.8-49.8H7757h566.7l93.8,49.8c109.1,55.5,210.6,176.1,239.3,283.4c13.4,51.7,17.2,1137.2,15.3,3373.5l-5.7,3300.7l-53.6,90c-59.4,101.5-176.1,191.5-291,224C8228,5026.5,7278.3,5026.5,7182.6,4999.6z"/><path d="M4119.3,3163.6c-105.3-30.6-214.4-114.9-277.6-218.3l-57.4-91.9l-5.7-2383.6c-1.9-1608.2,1.9-2404.7,15.3-2454.5c28.7-109.1,130.2-229.7,239.3-285.3l93.8-49.8h566.7h566.7l93.8,49.8c107.2,53.6,208.7,174.2,239.3,281.4c26.8,97.7,26.8,4734.8,0,4832.4c-30.6,107.2-132.1,227.8-239.3,281.4c-93.8,49.8-95.7,49.8-631.8,53.6C4418,3180.8,4157.6,3173.1,4119.3,3163.6z"/><path d="M1040.7,1319.8c-113-36.4-202.9-111.1-266.1-218.3l-53.6-90l-5.7-1460.8c-3.8-978.4,1.9-1485.7,15.3-1535.5c28.7-109.1,130.2-229.7,239.3-285.3l93.8-49.8h566.7h566.7l93.8,49.8c107.2,53.6,208.7,174.2,239.3,281.4c26.8,97.7,26.8,2896.8,0,2994.4c-30.6,107.2-132.1,227.8-239.3,281.4c-93.8,49.8-97.6,49.8-631.8,53.6C1249.3,1344.7,1103.8,1339,1040.7,1319.8z"/><path d="M711.3-4167.3V-4780H5000h4288.7v612.7v612.7H5000H711.3V-4167.3z"/></g></g>
</svg>