<?xml version="1.0" encoding="utf-8"?>
<!-- Svg Vector Icons : http://www.sfont.cn -->
<!DOCTYPE svg PUBLIC "-//W3C//DTD SVG 1.1//EN" "http://www.w3.org/Graphics/SVG/1.1/DTD/svg11.dtd">
<svg version="1.1" xmlns="http://www.w3.org/2000/svg" xmlns:xlink="http://www.w3.org/1999/xlink" x="0px" y="0px" viewBox="0 0 1000 1000" enable-background="new 0 0 1000 1000" xml:space="preserve">
<metadata> Svg Vector Icons : http://www.sfont.cn </metadata>
<g><path d="M483.4,207.5c-61.8,61.8-44.1,136.8-66.2,216.3L81.7,83.9c-8.8-8.8-17.7-13.2-30.9-13.2c-22.1,0-39.7,17.7-39.7,39.7v13.2c0,123.6,53,348.7,216.3,529.7L33.2,847.6c-30.9,30.9-30.9,83.9,0,114.8c30.9,30.9,83.9,30.9,114.8,0l194.2-194.2L457,883l101.5-92.7L726.2,958c30.9,30.9,83.9,30.9,114.8,0s30.9-83.9,0-114.8L576.1,573.9c75-22.1,154.5-4.4,216.3-66.2l181-181c22.1-22.1,22.1-53,0-70.6c-22.1-22.1-53-22.1-70.6,0L743.9,415c-13.2,13.2-30.9,13.2-44.1,0c-13.2-13.2-13.2-30.9,0-44.1L858.7,212c22.1-22.1,22.1-53,0-70.6c-22.1-22.1-53-22.1-70.6,0L629.1,300.2c-13.2,13.2-30.9,13.2-44.1,0c-13.2-13.2-13.2-30.9,0-44.1l154.5-154.5c22.1-22.1,22.1-53,0-70.6c-22.1-22.1-53-22.1-70.6,0L483.4,207.5z"/></g>
</svg>