<?xml version="1.0" encoding="utf-8"?>
<!-- Svg Vector Icons : http://www.sfont.cn -->
<!DOCTYPE svg PUBLIC "-//W3C//DTD SVG 1.1//EN" "http://www.w3.org/Graphics/SVG/1.1/DTD/svg11.dtd">
<svg version="1.1" xmlns="http://www.w3.org/2000/svg" xmlns:xlink="http://www.w3.org/1999/xlink" x="0px" y="0px" viewBox="0 0 1000 1000" enable-background="new 0 0 1000 1000" xml:space="preserve">
<metadata> Svg Vector Icons : http://www.sfont.cn </metadata>
<g><path d="M617.7,587c-71.3-10.7-59-110.7-59-110.7c41.1-23.4,47.9-85.9,47.9-85.9V308c0,0-11.6-83.3-77.1-83.3L473,200.6c-72.9,0-80,107.4-80,107.4s0.6,29.9,0,75.7c-0.6,45.7,47.5,96.3,47.5,96.3s11.1,100.3-49.2,106.9c-71.3,10.7-130.4,55.4-143.8,68.5C224.2,686,225,799.4,225,799.4h551.4c0,0-7.6-130.9-21-143.9C741.9,642.4,689,597.7,617.7,587z"/><path d="M990,798.4c0,0-4.6-100.4-24.9-124.8c-10-11.9-55-47.9-114.1-56.8C791.8,607.9,801,525,801,525c34-19.4,45.9-71.3,45.9-71.3v-88c0,0-14.8-73.3-69.1-73.3L731,273.8c-60.4,0-73,91.9-73,91.9s0.5,44.6,0,82.5c-0.5,37.9,46,79.9,46,79.9s6,37.4-1.2,58.3c67.5,42.6,78.4,54.2,83.5,62.4c14.7,23.9,15.7,149,15.7,149L990,798.4z"/><path d="M296,528.1c0,0,46.5-42,46-79.9c-0.5-37.9,0-82.5,0-82.5s-12.5-91.9-73-91.9l-46.8,18.6c-54.3,0-69.1,73.3-69.1,73.3v88c0,0,11.8,51.9,45.9,71.3c0,0,9.2,82.9-49.9,91.8c-59.1,8.8-104,45-114.1,56.8C14.1,697.9,10,798.4,10,798.4l188-0.5c0,0,5.5-131.1,16.2-146.6c5.5-8,15.6-22.1,83-64.7C290,565.5,296,528.1,296,528.1z"/></g>
</svg>