<?xml version="1.0" encoding="utf-8"?>
<!-- Svg Vector Icons : http://www.sfont.cn -->
<!DOCTYPE svg PUBLIC "-//W3C//DTD SVG 1.1//EN" "http://www.w3.org/Graphics/SVG/1.1/DTD/svg11.dtd">
<svg version="1.1" xmlns="http://www.w3.org/2000/svg" xmlns:xlink="http://www.w3.org/1999/xlink" x="0px" y="0px" viewBox="0 0 1000 1000" enable-background="new 0 0 1000 1000" xml:space="preserve">
<metadata> Svg Vector Icons : http://www.sfont.cn </metadata>
<g><path d="M811,10H188L10,316.2c0,0,0,105,0,122.5c0,32.6,11.7,68.3,30.7,91.9l0.9,336.9c0,67.7,56.6,122.5,126.3,122.5h663.2c69.8,0,128.3-54.9,128.3-122.5V530.6c21.4-25.2,30.6-51.1,30.6-91.9c0-33.5,0-122.5,0-122.5L811,10z M898.1,708v37v61.3V842v25.5c0,33.8-32.2,61.3-67.1,61.3H167.9c-34.9,0-65.9-27.4-65.9-61.3V842h0V709.8l-0.1-148.6H162c32.9,0,85.1-29.3,107.1-74.2c24.8,43.6,71,74.2,115.2,74.2c46.7,0,98-27.8,115.2-67.9c17.2,39.1,67.4,67.9,113.1,67.9c45.3,0,92.3-33.3,116-78.8c27.8,45.9,50.2,78.8,108.2,78.8c9,0,53.4,1.5,61.3,0L898.1,708L898.1,708z M928.8,438.8c-0.4,42.3-49.2,61.3-91.9,61.2c-49.2,0-93.6-29.8-93.6-61.2h-28.9c0,30.9-54.8,61.2-102.1,61.2c-45.3,0-98-31.3-98-61.2h-29.7c0,30.9-53.6,61.2-98.9,61.2c-47.2,0-101.1-21.7-101.1-61.2h-29c0,30.8-47.3,62.2-92.7,62.2c-46.1,0-91.7-19.9-91.7-62.2v-61.3h857.5V438.8L928.8,438.8z M72.5,316.2l142.7-245h568.8l145.7,245H72.5z"/></g>
</svg>