<?xml version="1.0" encoding="utf-8"?>
<!-- Svg Vector Icons : http://www.sfont.cn -->
<!DOCTYPE svg PUBLIC "-//W3C//DTD SVG 1.1//EN" "http://www.w3.org/Graphics/SVG/1.1/DTD/svg11.dtd">
<svg version="1.1" xmlns="http://www.w3.org/2000/svg" xmlns:xlink="http://www.w3.org/1999/xlink" x="0px" y="0px" viewBox="0 0 1000 1000" enable-background="new 0 0 1000 1000" xml:space="preserve">
<metadata> Svg Vector Icons : http://www.sfont.cn </metadata>
<g><path d="M255.2,811.7c-66.9,0-121.4-54.5-121.4-121.4c0-66.9,54.4-121.4,121.4-121.4c66.9,0,121.3,54.4,121.3,121.4C376.5,757.2,322.1,811.7,255.2,811.7z M255.2,619c-39.3,0-71.3,32-71.3,71.3c0,39.3,32,71.3,71.3,71.3c39.3,0,71.3-32,71.3-71.3C326.4,651,294.5,619,255.2,619z"/><path d="M753.5,811.7c-68,0-123.4-55.3-123.4-123.4c0-68,55.3-123.4,123.4-123.4c68,0,123.4,55.3,123.4,123.4C876.9,756.3,821.5,811.7,753.5,811.7z M753.5,615c-40.4,0-73.3,32.9-73.3,73.3c0,40.4,32.9,73.3,73.3,73.3c40.4,0,73.3-32.9,73.3-73.3C826.8,647.9,793.9,615,753.5,615z"/><path d="M591.4,586h-70.8c-9.2,0-16.7-7.5-16.7-16.7s7.5-16.7,16.7-16.7h70.8c9.2,0,16.7,7.5,16.7,16.7C608.1,578.5,600.7,586,591.4,586z"/><path d="M958.6,399.3c-51-66-132.8-161.2-137.9-166.8l-1.1-1.1c-39.8-38.3-97-42.6-105.5-43l-616.8,0C8.8,185.8,10,278,10,278l0.6,178.9l-0.3,134.8c0,61.7,48.4,97.6,115.9,97.6c8.6,0,18.7-0.2,24.5,0.1v-48.7c-2.8-0.3-29.9,0.3-37.2,0.3c-58.3,0-52.8-35.9-52.8-68v-91.4h353.5v168.5h-66.9v34.6h296.5v-34.6H446.6l0.4-413.2h237.5l0.4,369.9h33V480.5h221.9v120l0,19.8c0.4,7.9-1.5,8.1-9.7,16.3c-2,2-5.3,4.4-12.7,4.4H854v48.5h63.4c19.7,0,36.7-6.8,49.3-19.6c17.9-18.2,22.3-44,23.2-59V482.7C989.3,471,984.9,433.4,958.6,399.3z M414.4,428.5h-0.2v20.3h-67.5v0h-167v0H63.1l-1.2-175.4c0,0-1.2-36.5,35.4-36.5h82.3v-0.2h167v0.2h67.8L414.4,428.5L414.4,428.5z M718.5,448.8V237.4c20.8,1.9,45,9.3,65,27.9c9.2,10.1,86.7,100.9,134.7,163.1c5.2,6.7,9.1,13.8,12.2,20.5L718.5,448.8L718.5,448.8z"/></g>
</svg>