<?xml version="1.0" encoding="utf-8"?>
<!-- Svg Vector Icons : http://www.sfont.cn -->
<!DOCTYPE svg PUBLIC "-//W3C//DTD SVG 1.1//EN" "http://www.w3.org/Graphics/SVG/1.1/DTD/svg11.dtd">
<svg version="1.1" xmlns="http://www.w3.org/2000/svg" xmlns:xlink="http://www.w3.org/1999/xlink" x="0px" y="0px" viewBox="0 0 1000 1000" enable-background="new 0 0 1000 1000" xml:space="preserve">
<metadata> Svg Vector Icons : http://www.sfont.cn </metadata>
<g><g><g id="Inkpen"><g><path d="M989.4,370C958.7,185.8,814.3,41.4,630.1,10.7c-11.7-2-23.8,0.7-33.6,7.5C488.7,92.2,369.9,146.7,243.3,180c-17.3,4.5-30.3,18.6-33.5,36.2C167.6,448.5,101.5,677.3,13.3,896.3c-6.9,17.1-2.9,36.6,10.1,49.6l30.6,30.6c8.8,8.8,20.5,13.4,32.5,13.4c5.8,0,11.6-1.1,17.1-3.3c219-88.1,447.8-154.2,680.1-196.5c17.5-3.2,31.7-16.2,36.2-33.5c33.3-126.6,87.8-245.4,161.9-353.2C988.6,393.7,991.3,381.7,989.4,370z M739,705.1C563,738.6,389.2,785.6,220,845l297.5-297.5c18,8.6,37.8,13.8,59,13.8l0,0c76,0,137.8-61.8,137.8-137.8c0-75.9-61.8-137.7-137.8-137.8c-75.9,0-137.7,61.8-137.8,137.8c0,21.2,5.2,41,13.8,59L155.1,780C214.4,610.8,261.4,437,294.9,261c120.1-34.6,233.4-87.2,337.6-156.4c131.3,28.9,234,131.6,262.9,262.9C826.1,471.6,773.7,585,739,705.1z M530.6,423.5c0-25.3,20.6-46,45.9-46c25.4,0,46,20.6,46,45.9c0,25.3-20.6,45.9-45.9,45.9C551.3,469.4,530.7,448.7,530.6,423.5z"/></g></g></g><g></g><g></g><g></g><g></g><g></g><g></g><g></g><g></g><g></g><g></g><g></g><g></g><g></g><g></g><g></g></g>
</svg>