<?xml version="1.0" encoding="utf-8"?>
<!-- Svg Vector Icons : http://www.sfont.cn -->
<!DOCTYPE svg PUBLIC "-//W3C//DTD SVG 1.1//EN" "http://www.w3.org/Graphics/SVG/1.1/DTD/svg11.dtd">
<svg version="1.1" xmlns="http://www.w3.org/2000/svg" xmlns:xlink="http://www.w3.org/1999/xlink" x="0px" y="0px" viewBox="0 0 1000 1000" enable-background="new 0 0 1000 1000" xml:space="preserve">
<metadata> Svg Vector Icons : http://www.sfont.cn </metadata>
<g><g transform="translate(0.000000,511.000000) scale(0.100000,-0.100000)"><path d="M4778.3,4999.5c-653.2-91.7-1166.1-546-1353.3-1203.1c-56.5-198.9-62.4-592.8-9.8-783.9c19.5-68.2,156-450.4,304.2-848.2c337.3-904.8,374.4-1039.4,411.4-1503.4c27.3-310-1.9-637.7-87.7-1021.8c-142.3-631.8-189.2-739-368.5-850.2l-95.6-58.5l-1210.9-11.7c-1189.5-9.7-1212.9-9.7-1328-52.6c-247.7-91.7-440.7-280.8-540.2-526.5c-44.8-111.2-44.8-119-50.7-1088.1c-3.9-643.5,1.9-992.6,13.7-1029.6c25.3-64.3,124.8-109.2,245.7-109.2h87.7v-273c0-323.7,17.6-376.3,132.6-407.6c101.4-29.2,8037.9-29.2,8139.3,0c115,31.2,132.6,83.9,132.6,407.6v273h85.8c44.8,0,111.1,9.7,146.3,21.4c118.9,41,118.9,39,118.9,1037.4c0,565.5-7.8,947.7-21.4,1019.8c-56.6,312-269.1,559.7-581.1,676.7c-105.3,39-152.1,40.9-1318.2,50.7l-1209,11.7l-93.6,54.6c-93.6,56.6-185.3,161.8-224.2,261.3c-37.1,93.6-177.4,672.7-210.6,875.5c-21.5,122.8-33.2,308.1-33.2,505.1c-1.9,546,48.8,758.5,413.4,1735.5c148.2,395.8,282.8,770.2,296.4,828.7c41,159.9,35.1,618.1-9.8,780c-91.6,331.5-239.8,579.2-491.4,817c-273,257.4-610.3,401.7-994.5,419.2C4979.1,5013.1,4846.6,5009.2,4778.3,4999.5z M5291.2,4638.7c159.9-41,337.3-126.7,468-226.2c204.7-154,395.8-446.5,470-719.5c40.9-156,46.8-475.8,9.8-624c-15.6-58.5-138.5-405.6-276.9-770.2c-331.5-885.3-378.3-1047.1-429-1482c-29.2-241.8-11.7-754.7,31.2-994.5c58.5-319.8,204.7-869.7,263.3-984.7c70.2-136.5,210.6-282.8,343.2-354.9c206.7-111.2,226.2-113.1,1456.6-113.1c783.9,0,1152.5-5.8,1203.2-21.5c115-35.1,255.4-152.1,310-261.3l50.7-95.6l5.9-863.8l5.8-863.8H4998.6H796.4v854.1v854.1l50.7,101.4c27.3,56.6,85.8,130.7,128.7,167.7c152.1,130.7,132.6,128.7,1390.3,128.7c1230.5,0,1255.8,1.9,1456.7,111.1c118.9,64.4,288.6,241.8,352.9,368.5c48.8,97.5,202.8,692.2,261.3,1008.2c23.4,128.7,33.2,288.6,33.2,569.4c1.9,624-42.9,811.2-427.1,1840.8c-154,413.4-290.5,797.5-304.2,850.2c-33.1,142.3-29.2,427,9.8,575.2c117,462.1,491.4,834.6,943.8,945.7C4844.6,4673.8,5148.8,4675.8,5291.2,4638.7z M8849.9-4263v-175.5H4998.6H1147.4v175.5v175.5h3851.2h3851.2V-4263z"/></g></g>
</svg>